# xmcd CD database file
#
# Track frame offsets:
#	150
#	18260
#	38100
#	64827
#	86048
#	106883
#	129979
#	149507
#	167194
#	186398
#
# Disc length: 2691 seconds
#
# Revision: 1
# Processed by: cddbd v1.5.2PL0 Copyright (c) Steve Scherf et al.
# Submitted via: CDex 1.79
#
DISCID=890a810a
DTITLE=Beth Hart - Better Than Home
DYEAR=2015
DGENRE=Blues
TTITLE0=Might as well smile
TTITLE1=Tell 'em to hold on
TTITLE2=Tell her you belong to me
TTITLE3=Trouble
TTITLE4=Better than home
TTITLE5=St. Teresa
TTITLE6=We're still living in the City
TTITLE7=The mood that I'm in
TTITLE8=Mechanical heart
TTITLE9=As long as I have a song
EXTD=YEAR: 2015
EXTT0=
EXTT1=
EXTT2=
EXTT3=
EXTT4=
EXTT5=
EXTT6=
EXTT7=
EXTT8=
EXTT9=
PLAYORDER=
